inDegrees=no
num_controls=7
num_derivatives=13
num_iterations=126
num_multipliers=7
num_parameters=0
num_slacks=7
num_states=26
objective=5.145188
objective_accelerations=0.361114
objective_balance=0.013195
objective_effort=0.345027
objective_height=4.349467
objective_ligament=0.076384
solver_duration=1090.127532
status=Solve_Succeeded
success=true
DataType=double
version=3
OpenSimVersion=4.4-2022-07-23-0e9fedc
endheader
time	/jointset/ground_pelvis/pelvis_tilt/value	/jointset/ground_pelvis/pelvis_tx/value	/jointset/ground_pelvis/pelvis_ty/value	/jointset/hip_r/hip_flexion_r/value	/jointset/hip_r/hip_adduction_r/value	/jointset/hip_r/hip_rotation_r/value	/jointset/back/lumbar_extension/value	/jointset/patellofemoral_r/patellar_flexion_r/value	/jointset/knee_r/knee_flexion_r/value	/jointset/knee_r/knee_adduction_r/value	/jointset/knee_r/knee_rotation_r/value	/jointset/ankle_r/ankle_angle_r/value	/jointset/subtalar_r/subtalar_angle_r/value	/jointset/ground_pelvis/pelvis_tilt/speed	/jointset/ground_pelvis/pelvis_tx/speed	/jointset/ground_pelvis/pelvis_ty/speed	/jointset/hip_r/hip_flexion_r/speed	/jointset/hip_r/hip_adduction_r/speed	/jointset/hip_r/hip_rotation_r/speed	/jointset/back/lumbar_extension/speed	/jointset/patellofemoral_r/patellar_flexion_r/speed	/jointset/knee_r/knee_flexion_r/speed	/jointset/knee_r/knee_adduction_r/speed	/jointset/knee_r/knee_rotation_r/speed	/jointset/ankle_r/ankle_angle_r/speed	/jointset/subtalar_r/subtalar_angle_r/speed	/forceset/tau_hip_flexion_r	/forceset/tau_hip_adduction_r	/forceset/tau_hip_rotation_r	/forceset/tau_knee_flexion_r	/forceset/tau_ankle_angle_r	/forceset/tau_subtalar_angle_r	/forceset/tau_lumbar_extension	lambda_cid13_p0	lambda_cid14_p0	lambda_cid14_p1	lambda_cid14_p2	lambda_cid14_p3	lambda_cid14_p4	lambda_cid14_p5	/jointset/ground_pelvis/pelvis_tilt/accel	/jointset/ground_pelvis/pelvis_tx/accel	/jointset/ground_pelvis/pelvis_ty/accel	/jointset/hip_r/hip_flexion_r/accel	/jointset/hip_r/hip_adduction_r/accel	/jointset/hip_r/hip_rotation_r/accel	/jointset/back/lumbar_extension/accel	/jointset/patellofemoral_r/patellar_flexion_r/accel	/jointset/knee_r/knee_flexion_r/accel	/jointset/knee_r/knee_adduction_r/accel	/jointset/knee_r/knee_rotation_r/accel	/jointset/ankle_r/ankle_angle_r/accel	/jointset/subtalar_r/subtalar_angle_r/accel	gamma_cid13_p0	gamma_cid14_p0	gamma_cid14_p1	gamma_cid14_p2	gamma_cid14_p3	gamma_cid14_p4	gamma_cid14_p5
1.5	0.003694652303396351	0.074465371011789	0.8600301596256607	0.5659224447367875	-0.2490494336844211	-0.09848223566896137	-0.5970227817403655	0.7936173164291024	0.7936173164293937	0.06848840746470468	0.1744691541234158	0.2950783835342547	0.09815061061478135	0.2259091765710005	0.1534850501261851	0.3232664582146224	-1.358297747514524	0.04789586152934457	-0.3954748454008736	0.7998987070471115	-1.581926920569694	-1.581926920569804	0.1103800404637174	0.001204249019093754	-0.5167928427278971	-0.1002589666043947	-0.1022268436762465	-0.0009027993859978562	0.02902248221566118	-0.2882707858794866	-0.01647938810024417	-0.01541273796738064	0.1756384872984075	-16.3480621330642	-48.6133248675458	-13.19899967149485	0.2342027734710785	1.756992326834781	-640.6590513259038	60.06385087846568	-0.1214741351600685	0.2868956390715464	-0.3286358686140052	-0.5513578882252489	0.04756876771225589	-0.06514396518756919	1.286773095920337	-1.048921401780505	-1.048921401780379	0.6036123948208865	-0.02521955006736496	-0.4557478476012594	-0.02439716969311442	7.753687701179903e-08	3.569030054380553e-08	-6.396246776113874e-07	4.625541641991904e-07	5.160112957879867e-08	9.054226869418464e-08	-5.59539673001161e-07
1.51	0.005947461779400113	0.07601439257393011	0.8632457426957648	0.552313475127386	-0.2485686828077768	-0.1024400109830663	-0.5889607301161481	0.7777477125608978	0.7777477125610466	0.06962331802508918	0.1744807133727601	0.2898882299310415	0.09714610184809253	0.2246222783260894	0.1562997718752257	0.3197844531486389	-1.363310681372717	0.04823955232761502	-0.396043513831572	0.8123926938441808	-1.591764362629465	-1.591764362629491	0.1166073443863085	0.001105278241653043	-0.5211599884498619	-0.100637829620497	-0.09678213720061478	-0.002261354532256772	0.02837715884294445	-0.2856753619372678	-0.0134469789532393	-0.01618813244762498	0.1704194840054357	-17.13411203545018	-47.49544505535452	-13.25949196947749	0.1518638247535578	1.428529832893892	-637.6608976678931	59.82207012722002	-0.1368593232484406	0.2758475075273197	-0.3678143530288189	-0.4484318139730268	0.02558206440438354	-0.04710595935082001	1.212872878861275	-0.9167500173878842	-0.9167500173752531	0.6329951014054334	-0.002501683434309356	-0.415494475343282	-0.04393741699702961	8.56826427735137e-08	4.271593814058959e-08	-6.989372374753285e-07	5.16613114299524e-07	5.262073270854568e-08	1.095593233587466e-07	-6.174353573779352e-07
1.52	0.008186489942136568	0.07759097876650273	0.8664245394097215	0.5386599420435367	-0.2480849324574303	-0.1064023485169549	-0.5807773063425081	0.761786615390219	0.7617866153902384	0.07082064276672477	0.1744912297459891	0.2846567455624389	0.09613794314135946	0.2231529139175189	0.1589979762124878	0.315909186985081	-1.367210442405174	0.04849575626667401	-0.3963872893558586	0.8241731369316985	-1.600225581061739	-1.600225581061681	0.1228628767259652	0.0009956737901169652	-0.5250589958057957	-0.10098895461372	-0.09133743072495111	-0.00361990967849314	0.02773183547057136	-0.2830799379950418	-0.01041456980622928	-0.01696352692784052	0.1652004807124875	-17.91479680973275	-46.37999420049656	-13.3173454337139	0.06560368135114314	1.091561866125844	-634.7033751715751	59.62075784921937	-0.1579673678918261	0.2635921567156697	-0.4072880881288965	-0.3287233230777544	0.0300713958701134	-0.02016538390482263	1.14406435400997	-0.7736766762811843	-0.7736766762812156	0.6092580782339511	-0.02734628488695973	-0.3621201743952155	-0.01884956511705694	9.105475117301547e-08	5.005455480762903e-08	-7.140113671918402e-07	5.630531260738106e-07	4.963248625077615e-08	1.253990783001926e-07	-6.457195165105579e-07
1.53	0.0104099696149204	0.07919389664826099	0.8695626798454021	0.5249729361263563	-0.2475990649815904	-0.1103669250436107	-0.5724796353982293	0.7457477452302723	0.7457477452301761	0.07208071311850098	0.1745004915188478	0.2793885414820335	0.09512638202131432	0.2215154747375462	0.1615592680083981	0.311658715444794	-1.3700027392674	0.04866355313957784	-0.3964999040205617	0.8352460353059378	-1.607318209764262	-1.607318209764198	0.1291463591574009	0.0008578034256915617	-0.5285083438723183	-0.1013189947889457	-0.08619547120034604	-0.004923536285713971	0.02708115621872647	-0.2800555739343361	-0.008198220575724962	-0.01766600333263876	0.1602136380173833	-18.6894050274823	-45.54005204829821	-13.37792910448387	-0.03603047322905423	0.9992292070212345	-631.9770595368141	59.4157503893391	-0.1707583592432132	0.2484555722144077	-0.4429254858100513	-0.2262752864460415	0.008048234497373076	-0.002470337176054561	1.071650086477336	-0.642538748228656	-0.6425387482277866	0.6370960726932511	-0.006739364753731931	-0.3253019574518493	-0.03947101948478069	9.347984862516601e-08	5.772571173681481e-08	-6.820821648767086e-07	6.013980158766725e-07	4.238589960627036e-08	1.378629522858278e-07	-6.425414300712696e-07
1.54	0.01261624966266562	0.0808216390242153	0.8726565158059139	0.5112636487568289	-0.2471119366567036	-0.1143317598828147	-0.5640746859687384	0.7296448522270926	0.7296448522268825	0.07340345884391367	0.1745084281975847	0.2740880519540326	0.09411164254436702	0.2197129889098661	0.1639628750516972	0.3070482919512161	-1.371666732875658	0.04874792607237134	-0.3964389518621868	0.845628833974041	-1.613030149706421	-1.613030149706352	0.1353979514726176	0.0007306549599176923	-0.5315160853256866	-0.1016246259945473	-0.08105351167571619	-0.00622716289298785	0.02643047696725902	-0.2770312098736268	-0.005981871345241385	-0.01836847973753081	0.1552267953223114	-19.4574971771091	-44.70166501093782	-13.43591807994714	-0.1413536135940499	0.8949305552797472	-629.2793848033607	59.2515181407502	-0.1909766974332152	0.2320552061932344	-0.4792784787870482	-0.1030626722840041	0.01338660784820366	0.01454798071121405	1.00604441278271	-0.4975389242086233	-0.4975389242086626	0.6028800549900932	-0.02520190515724866	-0.2737988517645759	-0.01396777119203125	9.839132005494183e-08	6.415600586895028e-08	-6.997355211019121e-07	6.417900597332166e-07	4.012548407721881e-08	1.534189204978806e-07	-6.71592061394588e-07
1.55	0.01480374400737515	0.08247265745283022	0.875702527952493	0.4975431562686912	-0.2466244396234924	-0.1182951588814305	-0.5555695087320778	0.7134916625031091	0.7134916625029567	0.07478865531220896	0.1745151987027179	0.2687597226790256	0.09309390178576785	0.2177560513398497	0.1662169109281237	0.3021000748329583	-1.372247528521277	0.04873824036730536	-0.3962090985158579	0.8552861405657076	-1.617376644263645	-1.617376644263606	0.1416330203480387	0.0006177468483630102	-0.5340684021784173	-0.1019153657931929	-0.07569779008317915	-0.007714773820198643	0.0257820873440751	-0.274607853747502	-0.003035233673935339	-0.01922081319923614	0.1501351546289801	-20.21891043607054	-43.65270596584651	-13.53685088577297	-0.2230039148913108	0.6120224677539385	-626.8270007993107	59.0858788949873	-0.202520861461639	0.218501925592177	-0.510666076292388	-0.007944785038947275	-0.01009101619170384	0.03210903023544921	0.927502863544668	-0.368554195079008	-0.3685541950834981	0.6324835767210275	-0.005076665713733218	-0.2337201371447665	-0.03544764392262268	1.061675267198075e-07	6.915661025665831e-08	-7.745166078192376e-07	6.845407810863946e-07	4.361000483336421e-08	1.725375190142838e-07	-7.377757805748206e-07
